<svg width="480" height="480" viewBox="0 0 480 480" fill="none" xmlns="http://www.w3.org/2000/svg">
<path d="M426.7 255.525C436.497 261.144 442.54 271.576 442.54 282.871C442.54 294.165 436.497 304.597 426.7 310.217C379.672 337.19 314.764 374.421 314.67 374.475C314.67 374.475 210.894 433.998 170.649 457.082C160.934 462.654 148.993 462.654 139.278 457.082C117.986 444.869 78.9978 422.506 47.6758 404.541C37.879 398.921 31.836 388.49 31.8359 377.195C31.8359 365.9 37.8788 355.468 47.6758 349.849C94.7378 322.855 159.706 285.591 159.706 285.591L319.413 193.987L426.7 255.525Z" fill="url(#paint0_linear_1_3)"/>
<path d="M308.471 22.497C318.185 16.9251 330.126 16.9252 339.841 22.497C361.133 34.709 400.121 57.0721 431.443 75.0371C441.24 80.657 447.283 91.089 447.283 102.383C447.283 113.678 441.24 124.11 431.443 129.73C384.406 156.71 319.48 193.949 319.413 193.987L159.706 285.591C159.597 285.528 97.9187 250.152 52.4189 224.055C42.6219 218.435 36.5791 208.002 36.5791 196.708C36.5792 185.413 42.6221 174.981 52.4189 169.362C99.4809 142.368 164.449 105.104 164.449 105.104C164.539 105.053 268.243 45.5701 308.471 22.497Z" fill="url(#paint1_linear_1_3)"/>
<path d="M164.449 105.104C164.449 105.104 99.481 142.368 52.419 169.362C42.622 174.981 36.579 185.413 36.579 196.708C36.579 208.002 42.622 218.434 52.419 224.054C97.959 250.174 159.706 285.591 159.706 285.591L319.413 193.987L164.449 105.104Z" fill="black" fill-opacity="0.5"/>
<path d="M319.413 193.987L159.706 285.591L314.67 374.475C314.67 374.475 379.638 337.21 426.7 310.217C436.497 304.597 442.54 294.165 442.54 282.871C442.54 271.576 436.497 261.144 426.7 255.525C381.16 229.404 319.413 193.987 319.413 193.987Z" fill="black" fill-opacity="0.5"/>
<defs>
<linearGradient id="paint0_linear_1_3" x1="327.619" y1="193.987" x2="146.757" y2="461.261" gradientUnits="userSpaceOnUse">
<stop stop-color="#A66EFB"/>
<stop offset="0.197115" stop-color="#7D64F7"/>
<stop offset="1" stop-color="#5540D9"/>
</linearGradient>
<linearGradient id="paint1_linear_1_3" x1="339.938" y1="18.3181" x2="143.924" y2="285.591" gradientUnits="userSpaceOnUse">
<stop stop-color="#F658D6"/>
<stop offset="0.427885" stop-color="#FF4783"/>
<stop offset="1" stop-color="#E89F85"/>
</linearGradient>
</defs>
</svg>
